HIERARCHY
ROOT Hips
{
	OFFSET 0.000000 0.000000 0.000000
	CHANNELS 6 Xposition Yposition Zposition Xrotation Yrotation Zrotation
	JOINT LeftUpLeg_virtual
	{
		OFFSET 0.000000 0.000000 0.000000
		CHANNELS 3 Xrotation Yrotation Zrotation
		JOINT LeftUpLeg
		{
			OFFSET 10.205400 -3.823500 0.155100
			CHANNELS 3 Xrotation Yrotation Zrotation
			JOINT LeftLeg
			{
				OFFSET 0.708757 -12.982077 0.567790
				CHANNELS 3 Xrotation Yrotation Zrotation
				JOINT LeftFoot
				{
					OFFSET -0.708756 -10.717838 -2.184338
					CHANNELS 3 Xrotation Yrotation Zrotation
					JOINT LeftToeBase
					{
						OFFSET 0.108149 -7.191104 7.560241
						CHANNELS 3 Xrotation Yrotation Zrotation
						JOINT LeftToe_End
						{
							OFFSET 0.070230 0.081724 4.490308
							CHANNELS 3 Xrotation Yrotation Zrotation
							End Site
							{
								OFFSET 0 0 0
							}
						}
					}
				}
			}
		}
	}
	JOINT RightUpLeg_virtual
	{
		OFFSET 0.000000 0.000000 0.000000
		CHANNELS 3 Xrotation Yrotation Zrotation
		JOINT RightUpLeg
		{
			OFFSET -10.205400 -3.823500 0.005500
			CHANNELS 3 Xrotation Yrotation Zrotation
			JOINT RightLeg
			{
				OFFSET -0.708756 -12.982134 0.610632
				CHANNELS 3 Xrotation Yrotation Zrotation
				JOINT RightFoot
				{
					OFFSET 0.708754 -10.717769 -1.945823
					CHANNELS 3 Xrotation Yrotation Zrotation
					JOINT RightToeBase
					{
						OFFSET -0.108140 -7.191069 7.372968
						CHANNELS 3 Xrotation Yrotation Zrotation
						JOINT RightToe_End
						{
							OFFSET -0.070227 0.081735 4.479403
							CHANNELS 3 Xrotation Yrotation Zrotation
							End Site
							{
								OFFSET 0 0 0
							}
						}
					}
				}
			}
		}
	}
	JOINT Spine_virtual
	{
		OFFSET 0.000000 0.000000 0.000000
		CHANNELS 3 Xrotation Yrotation Zrotation
		JOINT Spine
		{
			OFFSET 0.000000 6.876099 0.125700
			CHANNELS 3 Xrotation Yrotation Zrotation
			JOINT Spine1
			{
				OFFSET 0.000000 5.730043 0.104720
				CHANNELS 3 Xrotation Yrotation Zrotation
				JOINT Spine1_split
				{
					OFFSET 0.000000 5.730043 0.104720
					CHANNELS 3 Xrotation Yrotation Zrotation
					JOINT Spine2
					{
						OFFSET 0.000000 5.730043 0.104720
						CHANNELS 3 Xrotation Yrotation Zrotation
						JOINT Neck_virtual
						{
							OFFSET 0.000000 0.000000 0.000000
							CHANNELS 3 Xrotation Yrotation Zrotation
							JOINT Neck
							{
								OFFSET 0.000000 10.314075 0.188496
								CHANNELS 3 Xrotation Yrotation Zrotation
								JOINT Head
								{
									OFFSET 0.000000 7.643700 -2.377400
									CHANNELS 3 Xrotation Yrotation Zrotation
									JOINT HeadTop_End
									{
										OFFSET 0.000000 43.788605 -13.619600
										CHANNELS 3 Xrotation Yrotation Zrotation
										End Site
										{
											OFFSET 0 0 0
										}
									}
								}
							}
						}
						JOINT LeftShoulder_virtual
						{
							OFFSET 0.000000 0.000000 0.000000
							CHANNELS 3 Xrotation Yrotation Zrotation
							JOINT LeftShoulder
							{
								OFFSET 2.196100 4.412489 0.087492
								CHANNELS 3 Xrotation Yrotation Zrotation
								JOINT LeftShoulder_split
								{
									OFFSET 2.196100 4.412489 0.087492
									CHANNELS 3 Xrotation Yrotation Zrotation
									JOINT LeftArm
									{
										OFFSET 8.771219 -2.981674 -0.026999
										CHANNELS 3 Xrotation Yrotation Zrotation
										JOINT LeftForeArm
										{
											OFFSET 8.512804 0.000000 -0.000000
											CHANNELS 3 Xrotation Yrotation Zrotation
											JOINT LeftHand
											{
												OFFSET 18.484802 0.000000 -0.000000
												CHANNELS 3 Xrotation Yrotation Zrotation
												End Site
												{
													OFFSET 0 0 0
												}
											}
										}
									}
								}
							}
						}
						JOINT RightShoulder_virtual
						{
							OFFSET 0.000000 0.000000 0.000000
							CHANNELS 3 Xrotation Yrotation Zrotation
							JOINT RightShoulder
							{
								OFFSET -2.196100 4.412496 0.070690
								CHANNELS 3 Xrotation Yrotation Zrotation
								JOINT RightShoulder_split
								{
									OFFSET -2.196100 4.412496 0.070690
									CHANNELS 3 Xrotation Yrotation Zrotation
									JOINT RightArm
									{
										OFFSET -8.771282 -2.981682 -0.094208
										CHANNELS 3 Xrotation Yrotation Zrotation
										JOINT RightForeArm
										{
											OFFSET -8.494598 0.000000 0.000000
											CHANNELS 3 Xrotation Yrotation Zrotation
											JOINT RightHand
											{
												OFFSET -18.483803 0.000000 0.000001
												CHANNELS 3 Xrotation Yrotation Zrotation
												End Site
												{
													OFFSET 0 0 0
												}
											}
										}
									}
								}
							}
						}
					}
				}
			}
		}
	}
}
MOTION
Frames: 11
Frame Time: 0.03333333
1.319439 17.300194 0.115782 0.000000 0.000000 0.000000 1.564517 -31.968366 8.064765 -75.485407 -18.441415 52.771117 75.135032 8.707476 -7.618542 38.855133 -1.401665 -5.848019 -4.344585 0.397578 -2.064600 0.000000 0.000000 0.000000 -3.164225 -26.730306 7.971671 -12.437944 -0.387965 -24.354416 115.009690 6.203977 -3.327944 35.165236 8.644497 16.898438 49.584738 -1.096190 -9.297415 0.000000 0.000000 0.000000 -1.235424 -31.918939 8.156255 1.738745 -1.871833 -6.543515 1.809417 -1.285241 -3.446931 0.884868 1.180965 -0.270461 0.000000 0.000000 0.000000 1.715631 -1.535869 -2.981615 -4.402269 0.676968 4.276877 3.136642 20.219027 3.135536 0.000000 0.000000 0.000000 1.192923 -0.917474 -3.058763 0.510227 3.795227 2.358005 -3.265297 -0.287617 -0.042071 0.330281 -13.765772 -55.283602 -15.830169 -88.877434 -14.912176 0.000000 0.000000 0.000000 2.451837 -1.381559 -3.456940 4.658672 17.216602 8.309894 -1.500767 3.601143 0.693812 11.153302 21.401158 34.791648 179.286769 53.120772 -179.124908 0.000000 0.000000 0.000000 
1.308880 17.304928 0.111959 0.000000 0.000000 0.000000 1.574083 -31.928918 8.076009 -75.467846 -18.428549 52.769799 75.138433 8.726881 -7.630809 38.863384 -1.393836 -5.860626 -4.345173 0.396395 -2.065419 0.000000 0.000000 0.000000 -3.148926 -26.695152 7.976696 -12.432606 -0.372196 -24.389130 115.047693 6.174635 -3.328542 35.086781 8.599813 16.904027 49.612766 -1.104130 -9.297503 0.000000 0.000000 0.000000 -1.207482 -31.885898 8.173581 1.747840 -1.875782 -6.554469 1.817680 -1.293382 -3.456541 0.915589 1.140399 -0.262743 0.000000 0.000000 0.000000 1.724150 -1.542671 -2.988854 -4.403373 0.679408 4.279473 3.149480 20.230713 3.120304 0.000000 0.000000 0.000000 1.196298 -0.925433 -3.064125 0.499215 3.803799 2.360349 -3.261338 -0.339314 -0.013952 0.315126 -13.762870 -55.251726 -17.507812 -88.921714 -16.578679 0.000000 0.000000 0.000000 2.455017 -1.391427 -3.461341 4.665504 17.199436 8.299878 -1.503673 3.574126 0.678936 11.105650 21.347259 34.775550 179.301031 53.102320 -179.135166 0.000000 0.000000 0.000000 
1.294127 17.313532 0.101976 0.000000 0.000000 0.000000 1.592802 -31.883074 8.092762 -75.405671 -18.423500 52.770704 75.089542 8.759907 -7.660192 38.857318 -1.383911 -5.887273 -4.362157 0.393822 -2.074512 0.000000 0.000000 0.000000 -3.127820 -26.655220 7.987827 -12.435334 -0.375534 -24.440317 115.100490 6.105296 -3.289902 34.940816 8.473255 16.859943 49.688766 -1.101607 -9.308903 0.000000 0.000000 0.000000 -1.159890 -31.837376 8.205425 1.766278 -1.886393 -6.574926 1.829312 -1.300637 -3.470843 0.933533 1.132322 -0.241211 0.000000 0.000000 0.000000 1.738157 -1.546973 -3.003327 -4.382976 0.680024 4.300571 3.145378 20.242956 3.123716 0.000000 0.000000 0.000000 1.202290 -0.931274 -3.075848 0.494066 3.815867 2.364147 -3.226113 -0.392896 -0.012836 0.247846 -13.707805 -55.200872 -21.218995 -89.056227 -20.269162 0.000000 0.000000 0.000000 2.464680 -1.399900 -3.472662 4.669019 17.194392 8.304120 -1.497225 3.576358 0.691599 11.034859 21.218662 34.754475 179.321958 53.078616 -179.154414 0.000000 0.000000 0.000000 
1.277017 17.323227 0.088232 0.000000 0.000000 0.000000 1.622494 -31.836581 8.114612 -75.311032 -18.428532 52.777036 74.997533 8.806460 -7.711972 38.833372 -1.368937 -5.920786 -4.373847 0.390050 -2.095283 0.000000 0.000000 0.000000 -3.104899 -26.620162 8.007929 -12.482472 -0.383927 -24.506075 115.153274 6.032540 -3.245604 34.821298 8.342461 16.831299 49.768887 -1.086949 -9.333183 0.000000 0.000000 0.000000 -1.105175 -31.788435 8.244524 1.787774 -1.901085 -6.600317 1.840492 -1.306780 -3.487368 0.922645 1.145382 -0.224650 0.000000 0.000000 0.000000 1.754984 -1.548557 -3.022497 -4.341937 0.682551 4.330551 3.121259 20.254986 3.135483 0.000000 0.000000 0.000000 1.208077 -0.934698 -3.091044 0.494602 3.831684 2.355798 -3.173361 -0.445526 -0.044951 0.156708 -13.607955 -55.140582 -28.175606 -89.250874 -27.198577 0.000000 0.000000 0.000000 2.476970 -1.405200 -3.488217 4.670602 17.199769 8.313222 -1.490110 3.611678 0.716513 10.953001 21.071330 34.722185 179.337531 53.076860 -179.171776 0.000000 0.000000 0.000000 
1.258789 17.332930 0.073818 0.000000 0.000000 0.000000 1.662399 -31.800411 8.139163 -75.198149 -18.453458 52.787609 74.888182 8.857973 -7.782942 38.811416 -1.358320 -5.974527 -4.364954 0.386088 -2.126217 0.000000 0.000000 0.000000 -3.066647 -26.592279 8.041661 -12.570973 -0.370068 -24.573549 115.191919 6.004821 -3.243827 34.789572 8.307961 16.891512 49.775868 -1.061156 -9.367984 0.000000 0.000000 0.000000 -1.057575 -31.758833 8.282945 1.809186 -1.918490 -6.625716 1.848837 -1.311283 -3.502992 0.912407 1.159403 -0.224014 0.000000 0.000000 0.000000 1.770625 -1.549276 -3.040979 -4.283218 0.692965 4.352276 3.076699 20.273922 3.140047 0.000000 0.000000 0.000000 1.211702 -0.936946 -3.105254 0.500302 3.850363 2.319151 -3.118654 -0.492025 -0.100305 0.074084 -13.482065 -55.074411 -40.615092 -89.453560 -39.610852 0.000000 0.000000 0.000000 2.487301 -1.408119 -3.503592 4.672247 17.213567 8.320137 -1.483471 3.665304 0.741730 10.868046 20.958167 34.678380 179.336152 53.109266 -179.174167 0.000000 0.000000 0.000000 
1.240809 17.340580 0.061888 0.000000 0.000000 0.000000 1.703384 -31.787304 8.163551 -75.076784 -18.496159 52.798015 74.784008 8.911011 -7.865092 38.800833 -1.354087 -6.051113 -4.350328 0.381220 -2.155731 0.000000 0.000000 0.000000 -3.023253 -26.581578 8.080101 -12.663973 -0.331734 -24.607566 115.200757 6.023115 -3.288073 34.856508 8.381965 17.029142 49.700268 -1.027164 -9.401330 0.000000 0.000000 0.000000 -1.033284 -31.752402 8.313425 1.828129 -1.936068 -6.647426 1.852565 -1.315902 -3.513681 0.903637 1.174835 -0.238849 0.000000 0.000000 0.000000 1.780896 -1.552084 -3.053544 -4.217055 0.715628 4.351810 3.016977 20.307505 3.124591 0.000000 0.000000 0.000000 1.211758 -0.939556 -3.114949 0.510246 3.868975 2.240316 -3.078384 -0.531229 -0.151519 0.031251 -13.339127 -55.003592 -60.544614 -89.599432 -59.516247 0.000000 0.000000 0.000000 2.493494 -1.410128 -3.514669 4.678087 17.234755 8.319420 -1.483810 3.717767 0.772993 10.792549 20.925376 34.632122 179.313038 53.168170 -179.153881 0.000000 0.000000 0.000000 
1.223070 17.346354 0.050842 0.000000 0.000000 0.000000 1.729167 -31.800500 8.184135 -74.951416 -18.548915 52.806375 74.704374 8.970743 -7.949555 38.799282 -1.347930 -6.133115 -4.354438 0.375714 -2.177976 0.000000 0.000000 0.000000 -2.995067 -26.595228 8.108991 -12.723602 -0.293885 -24.574688 115.160678 6.047077 -3.338998 34.971224 8.495884 17.167026 49.608805 -0.987819 -9.409112 0.000000 0.000000 0.000000 -1.038709 -31.763023 8.330240 1.844104 -1.951297 -6.662001 1.849966 -1.321179 -3.516003 0.906237 1.179181 -0.251823 0.000000 0.000000 0.000000 1.783729 -1.556969 -3.056805 -4.153152 0.754891 4.317479 2.950420 20.364340 3.083602 0.000000 0.000000 0.000000 1.207410 -0.943719 -3.116787 0.523383 3.888830 2.117621 -3.047061 -0.547352 -0.183493 0.030899 -13.184745 -54.934293 -81.891707 -89.661382 -80.847009 0.000000 0.000000 0.000000 2.495546 -1.411496 -3.517519 4.689103 17.259325 8.312138 -1.499089 3.770015 0.814967 10.732650 20.981358 34.579967 179.277057 53.236366 -179.115291 0.000000 0.000000 0.000000 
1.206987 17.351629 0.043316 0.000000 0.000000 0.000000 1.726432 -31.836161 8.193603 -74.823711 -18.607228 52.815011 74.665217 9.035527 -8.020666 38.810617 -1.340034 -6.220673 -4.390134 0.370392 -2.193508 0.000000 0.000000 0.000000 -2.991791 -26.623200 8.120869 -12.719059 -0.276529 -24.468627 115.075492 6.041753 -3.360044 35.041254 8.573761 17.232265 49.561140 -0.947151 -9.377445 0.000000 0.000000 0.000000 -1.065749 -31.787403 8.335654 1.858829 -1.962912 -6.668443 1.838996 -1.326698 -3.508868 0.915512 1.169744 -0.256916 0.000000 0.000000 0.000000 1.778385 -1.563074 -3.049504 -4.102930 0.806368 4.249865 2.890339 20.447700 3.021047 0.000000 0.000000 0.000000 1.197249 -0.949094 -3.109198 0.539296 3.908807 1.957865 -3.013948 -0.550347 -0.181450 0.065898 -13.019806 -54.873654 -94.603932 -89.685964 -93.550383 0.000000 0.000000 0.000000 2.491547 -1.413513 -3.510681 4.702706 17.283310 8.305942 -1.512725 3.833050 0.860132 10.679309 21.093000 34.535093 179.242974 53.309886 -179.071072 0.000000 0.000000 0.000000 
1.193602 17.356754 0.043207 0.000000 0.000000 0.000000 1.699739 -31.882114 8.190530 -74.697674 -18.656691 52.832879 74.664527 9.103948 -8.070639 38.826125 -1.327838 -6.301363 -4.451737 0.365159 -2.207557 0.000000 0.000000 0.000000 -3.011779 -26.655180 8.115107 -12.647010 -0.298415 -24.320714 114.963039 5.995287 -3.336716 35.039939 8.580303 17.197059 49.533997 -0.908450 -9.326757 0.000000 0.000000 0.000000 -1.104503 -31.810301 8.334125 1.873224 -1.967407 -6.666367 1.820892 -1.330683 -3.494130 0.925593 1.153772 -0.260545 0.000000 0.000000 0.000000 1.763844 -1.566869 -3.033893 -4.077227 0.861883 4.162669 2.846118 20.551491 2.950473 0.000000 0.000000 0.000000 1.181736 -0.953714 -3.094157 0.557205 3.930338 1.780890 -2.971942 -0.547210 -0.146083 0.114609 -12.844177 -54.838745 -98.954210 -89.704590 -97.900086 0.000000 0.000000 0.000000 2.480815 -1.413800 -3.495632 4.716598 17.309499 8.304595 -1.505022 3.893709 0.900166 10.637274 21.215992 34.496605 179.220598 53.398897 -179.032591 0.000000 0.000000 0.000000 
1.180974 17.363594 0.050610 0.000000 0.000000 0.000000 1.663631 -31.932630 8.175870 -74.582319 -18.694562 52.870510 74.691745 9.165851 -8.097067 38.843849 -1.318118 -6.370967 -4.526901 0.360434 -2.218725 0.000000 0.000000 0.000000 -3.043960 -26.695335 8.096447 -12.532402 -0.353003 -24.171437 114.858360 5.914657 -3.277313 34.997565 8.521736 17.080199 49.484437 -0.873004 -9.292238 0.000000 0.000000 0.000000 -1.148805 -31.820970 8.324653 1.889612 -1.963676 -6.654331 1.797402 -1.329092 -3.476141 0.934459 1.129806 -0.264784 0.000000 0.000000 0.000000 1.742463 -1.565460 -3.014867 -4.083923 0.906901 4.075458 2.823342 20.654052 2.894166 0.000000 0.000000 0.000000 1.161077 -0.954112 -3.076081 0.574847 3.953831 1.618363 -2.909299 -0.563731 -0.100433 0.155011 -12.663314 -54.847939 -102.107722 -89.720935 -101.062307 0.000000 0.000000 0.000000 2.464059 -1.409337 -3.475670 4.726601 17.335705 8.312503 -1.479493 3.949979 0.923272 10.611013 21.304007 34.455419 179.213208 53.516933 -179.005229 0.000000 0.000000 0.000000 
1.169107 17.372425 0.062176 0.000000 0.000000 0.000000 1.630091 -31.979936 8.151755 -74.491211 -18.723370 52.926005 74.725288 9.207341 -8.098823 38.865405 -1.323491 -6.440202 -4.588101 0.355372 -2.224841 0.000000 0.000000 0.000000 -3.069960 -26.729337 8.071053 -12.404704 -0.424046 -24.049672 114.788883 5.823358 -3.211648 34.933706 8.438015 16.924536 49.396693 -0.843410 -9.301291 0.000000 0.000000 0.000000 -1.187282 -31.817343 8.307518 1.905986 -1.952366 -6.632898 1.772189 -1.321245 -3.460287 0.938806 1.100634 -0.267253 0.000000 0.000000 0.000000 1.718089 -1.557624 -2.997450 -4.136239 0.929629 4.014401 2.818513 20.740932 2.871102 0.000000 0.000000 0.000000 1.136229 -0.948602 -3.060204 0.591345 3.971512 1.507755 -2.848955 -0.586406 -0.067254 0.165554 -12.482743 -54.911610 -109.115496 -89.727321 -108.085790 0.000000 0.000000 0.000000 2.442355 -1.399290 -3.456042 4.730303 17.360925 8.328622 -1.447107 4.015311 0.929244 10.608848 21.330093 34.397980 179.220421 53.648465 -178.989765 0.000000 0.000000 0.000000 
